<svg xmlns="http://www.w3.org/2000/svg" width="456" height="72" viewBox="0 0 456 72" fill="none">
<path d="M42.5227 1.18182H59.3636V46.2159C59.3636 51.4205 58.125 55.9545 55.6477 59.8182C53.1705 63.6591 49.7159 66.6364 45.2841 68.75C40.8523 70.8409 35.7045 71.8864 29.8409 71.8864C23.9091 71.8864 18.7273 70.8409 14.2955 68.75C9.86364 66.6364 6.42045 63.6591 3.96591 59.8182C1.51136 55.9545 0.284091 51.4205 0.284091 46.2159V1.18182H17.1591V44.75C17.1591 47.1591 17.6818 49.3068 18.7273 51.1932C19.7955 53.0795 21.2841 54.5568 23.1932 55.625C25.1023 56.6932 27.3182 57.2273 29.8409 57.2273C32.3636 57.2273 34.5682 56.6932 36.4545 55.625C38.3636 54.5568 39.8523 53.0795 40.9205 51.1932C41.9886 49.3068 42.5227 47.1591 42.5227 44.75V1.18182ZM129.361 1.18182V71H115.043L87.2585 30.7045H86.8153V71H69.9403V1.18182H84.4631L111.94 41.4091H112.52V1.18182H129.361ZM185.79 23.9886C185.403 22.5568 184.835 21.2955 184.085 20.2045C183.335 19.0909 182.415 18.1477 181.324 17.375C180.233 16.6023 178.983 16.0227 177.574 15.6364C176.165 15.2273 174.619 15.0227 172.938 15.0227C169.551 15.0227 166.619 15.8409 164.142 17.4773C161.688 19.1136 159.79 21.5 158.449 24.6364C157.108 27.75 156.438 31.5341 156.438 35.9886C156.438 40.4659 157.085 44.2841 158.381 47.4432C159.676 50.6023 161.551 53.0114 164.006 54.6705C166.46 56.3295 169.438 57.1591 172.938 57.1591C176.028 57.1591 178.642 56.6591 180.778 55.6591C182.938 54.6364 184.574 53.1932 185.688 51.3295C186.801 49.4659 187.358 47.2727 187.358 44.75L190.494 45.125H173.517V32.8182H203.619V42.0568C203.619 48.3068 202.29 53.6591 199.631 58.1136C196.994 62.5682 193.358 65.9886 188.722 68.375C184.108 70.7614 178.801 71.9545 172.801 71.9545C166.142 71.9545 160.29 70.5114 155.244 67.625C150.199 64.7386 146.267 60.625 143.449 55.2841C140.631 49.9205 139.222 43.5568 139.222 36.1932C139.222 30.4659 140.074 25.3864 141.778 20.9545C143.483 16.5 145.858 12.7273 148.903 9.63636C151.972 6.54545 155.517 4.20454 159.54 2.61363C163.585 1.02272 167.938 0.22727 172.597 0.22727C176.642 0.22727 180.403 0.806816 183.881 1.96591C187.381 3.125 190.472 4.76136 193.153 6.875C195.858 8.98864 198.051 11.5 199.733 14.4091C201.415 17.3182 202.46 20.5114 202.869 23.9886H185.79ZM213.565 71V1.18182H242.406C247.634 1.18182 252.145 2.125 255.94 4.01136C259.759 5.875 262.702 8.55682 264.77 12.0568C266.838 15.5341 267.872 19.6591 267.872 24.4318C267.872 29.2727 266.815 33.3864 264.702 36.7727C262.588 40.1364 259.588 42.7045 255.702 44.4773C251.815 46.2273 247.213 47.1023 241.895 47.1023H223.656V33.8068H238.759C241.304 33.8068 243.429 33.4773 245.134 32.8182C246.861 32.1364 248.168 31.1136 249.054 29.75C249.94 28.3636 250.384 26.5909 250.384 24.4318C250.384 22.2727 249.94 20.4886 249.054 19.0795C248.168 17.6477 246.861 16.5795 245.134 15.875C243.406 15.1477 241.281 14.7841 238.759 14.7841H230.44V71H213.565ZM252.872 39.0909L270.259 71H251.849L234.804 39.0909H252.872ZM277.128 71V1.18182H325.81V14.8864H294.003V29.2045H323.321V42.9432H294.003V57.2955H325.81V71H277.128ZM336.378 71V1.18182H385.06V14.8864H353.253V29.2045H382.571V42.9432H353.253V57.2955H385.06V71H336.378ZM421.435 71H395.628V1.18182H421.401C428.514 1.18182 434.639 2.57954 439.776 5.375C444.935 8.14772 448.912 12.1477 451.707 17.375C454.503 22.5795 455.901 28.8068 455.901 36.0568C455.901 43.3295 454.503 49.5795 451.707 54.8068C448.935 60.0341 444.969 64.0455 439.81 66.8409C434.651 69.6136 428.526 71 421.435 71ZM412.503 56.6136H420.787C424.696 56.6136 428.003 55.9545 430.707 54.6364C433.435 53.2955 435.491 51.125 436.878 48.125C438.287 45.1023 438.991 41.0795 438.991 36.0568C438.991 31.0341 438.287 27.0341 436.878 24.0568C435.469 21.0568 433.389 18.8977 430.639 17.5795C427.912 16.2386 424.548 15.5682 420.548 15.5682H412.503V56.6136Z" fill="#22C45D"/>
</svg>